<?xml version="1.0" encoding="UTF-8"?> <svg xmlns="http://www.w3.org/2000/svg" xmlns:xlink="http://www.w3.org/1999/xlink" version="1.1" id="Livello_1" x="0px" y="0px" viewBox="0 0 292.6 116" style="enable-background:new 0 0 292.6 116;" xml:space="preserve"> <style type="text/css"> .st0{fill-rule:evenodd;clip-rule:evenodd;fill:#FFFFFF;} </style> <g> <g transform="translate(-492 -301)"> <path class="st0" d="M493.5,301h79.3c0.9,0,1.6,0.7,1.6,1.6v26.9c0,0.9-0.7,1.6-1.6,1.6h-45.3v15.3h34.4c0.8,0,1.5,0.7,1.5,1.5 v22.2c0,0.8-0.7,1.5-1.5,1.5h-34.3v14.9h45.3c0.9,0,1.6,0.7,1.6,1.6v27.1c0,0.9-0.7,1.6-1.6,1.6h-79.3c-0.9,0-1.6-0.7-1.6-1.6 V302.7C491.9,301.7,492.6,301,493.5,301z"></path> <path class="st0" d="M782,301h-90.7v0.1c9.6,7.7,16.5,18.2,19.3,30h14.8v83.8c0,1.1,0.9,2,2,2H759c1.1,0,2-0.9,2-2v-83.8h21 c1.4,0,2.6-1.2,2.6-2.6v-24.9C784.6,302.2,783.5,301,782,301z"></path> <path class="st0" d="M630.5,331.9v25.5h15.3c7,0,12.8-5.7,12.8-12.8l0,0c0-7-5.7-12.8-12.8-12.8L630.5,331.9L630.5,331.9z M596.8,301h50.8c24.2,0,43.7,19.6,43.7,43.7l0,0c0,24.2-19.6,43.7-43.7,43.7h-17.1v26.8c0,1-0.8,1.8-1.8,1.8h-32 c-1,0-1.8-0.8-1.8-1.8V302.8C595.1,301.8,595.8,301,596.8,301z"></path> </g> </g> </svg> 